<svg id="visual" viewBox="0 0 900 600" width="900" height="600" xmlns="http://www.w3.org/2000/svg" xmlns:xlink="http://www.w3.org/1999/xlink" version="1.1"><g stroke-width="1" stroke-linejoin="bevel"><path d="M461 296L406 198L413 313Z" fill="#9dbcd2" stroke="#9dbcd2"></path><path d="M461 296L479 235L406 198Z" fill="#ebf1f6" stroke="#ebf1f6"></path><path d="M406 198L308 328L413 313Z" fill="#d8e4ed" stroke="#d8e4ed"></path><path d="M474 61L371 110L406 198Z" fill="#c4d6e4" stroke="#c4d6e4"></path><path d="M406 198L272 171L308 328Z" fill="#c4d6e4" stroke="#c4d6e4"></path><path d="M371 110L307 138L406 198Z" fill="#478aaf" stroke="#478aaf"></path><path d="M307 138L272 171L406 198Z" fill="#89afc9" stroke="#89afc9"></path><path d="M308 328L407 429L413 313Z" fill="#ffffff" stroke="#ffffff"></path><path d="M413 313L472 426L461 296Z" fill="#d8e4ed" stroke="#d8e4ed"></path><path d="M407 429L472 426L413 313Z" fill="#89afc9" stroke="#89afc9"></path><path d="M461 296L578 339L479 235Z" fill="#d8e4ed" stroke="#d8e4ed"></path><path d="M472 426L578 339L461 296Z" fill="#5f96b8" stroke="#5f96b8"></path><path d="M479 235L474 61L406 198Z" fill="#297ea6" stroke="#297ea6"></path><path d="M583 119L474 61L479 235Z" fill="#297ea6" stroke="#297ea6"></path><path d="M239 0L196 137L307 138Z" fill="#5f96b8" stroke="#5f96b8"></path><path d="M210 312L277 405L308 328Z" fill="#478aaf" stroke="#478aaf"></path><path d="M308 328L277 405L407 429Z" fill="#ffffff" stroke="#ffffff"></path><path d="M634 237L583 119L479 235Z" fill="#b1c9db" stroke="#b1c9db"></path><path d="M578 339L634 237L479 235Z" fill="#ffffff" stroke="#ffffff"></path><path d="M272 171L210 312L308 328Z" fill="#c4d6e4" stroke="#c4d6e4"></path><path d="M277 405L330 463L407 429Z" fill="#ffffff" stroke="#ffffff"></path><path d="M407 429L395 518L472 426Z" fill="#c4d6e4" stroke="#c4d6e4"></path><path d="M472 426L607 388L578 339Z" fill="#b1c9db" stroke="#b1c9db"></path><path d="M578 339L707 333L634 237Z" fill="#297ea6" stroke="#297ea6"></path><path d="M307 138L196 137L272 171Z" fill="#297ea6" stroke="#297ea6"></path><path d="M272 171L163 163L210 312Z" fill="#297ea6" stroke="#297ea6"></path><path d="M284 0L307 138L371 110Z" fill="#5f96b8" stroke="#5f96b8"></path><path d="M484 0L375 0L474 61Z" fill="#c4d6e4" stroke="#c4d6e4"></path><path d="M474 61L375 0L371 110Z" fill="#d8e4ed" stroke="#d8e4ed"></path><path d="M93 310L185 373L210 312Z" fill="#d8e4ed" stroke="#d8e4ed"></path><path d="M210 312L185 373L277 405Z" fill="#c4d6e4" stroke="#c4d6e4"></path><path d="M277 405L221 495L330 463Z" fill="#c4d6e4" stroke="#c4d6e4"></path><path d="M600 0L484 0L474 61Z" fill="#d8e4ed" stroke="#d8e4ed"></path><path d="M330 463L395 518L407 429Z" fill="#75a3c0" stroke="#75a3c0"></path><path d="M472 426L579 523L607 388Z" fill="#ebf1f6" stroke="#ebf1f6"></path><path d="M294 600L395 518L330 463Z" fill="#89afc9" stroke="#89afc9"></path><path d="M196 137L163 163L272 171Z" fill="#89afc9" stroke="#89afc9"></path><path d="M375 0L284 0L371 110Z" fill="#89afc9" stroke="#89afc9"></path><path d="M95 79L122 166L163 163Z" fill="#ffffff" stroke="#ffffff"></path><path d="M395 518L501 536L472 426Z" fill="#d8e4ed" stroke="#d8e4ed"></path><path d="M607 388L707 333L578 339Z" fill="#ebf1f6" stroke="#ebf1f6"></path><path d="M634 237L692 81L583 119Z" fill="#d8e4ed" stroke="#d8e4ed"></path><path d="M718 375L707 333L607 388Z" fill="#ffffff" stroke="#ffffff"></path><path d="M95 79L163 163L196 137Z" fill="#75a3c0" stroke="#75a3c0"></path><path d="M163 163L93 310L210 312Z" fill="#297ea6" stroke="#297ea6"></path><path d="M87 399L221 495L185 373Z" fill="#75a3c0" stroke="#75a3c0"></path><path d="M185 373L221 495L277 405Z" fill="#9dbcd2" stroke="#9dbcd2"></path><path d="M395 518L438 600L501 536Z" fill="#9dbcd2" stroke="#9dbcd2"></path><path d="M707 333L729 219L634 237Z" fill="#5f96b8" stroke="#5f96b8"></path><path d="M583 119L600 0L474 61Z" fill="#478aaf" stroke="#478aaf"></path><path d="M501 536L579 523L472 426Z" fill="#b1c9db" stroke="#b1c9db"></path><path d="M284 0L239 0L307 138Z" fill="#297ea6" stroke="#297ea6"></path><path d="M692 81L600 0L583 119Z" fill="#478aaf" stroke="#478aaf"></path><path d="M688 472L718 375L607 388Z" fill="#ebf1f6" stroke="#ebf1f6"></path><path d="M802 282L781 208L729 219Z" fill="#ffffff" stroke="#ffffff"></path><path d="M729 219L692 81L634 237Z" fill="#297ea6" stroke="#297ea6"></path><path d="M122 166L93 310L163 163Z" fill="#ebf1f6" stroke="#ebf1f6"></path><path d="M579 523L688 472L607 388Z" fill="#c4d6e4" stroke="#c4d6e4"></path><path d="M294 600L438 600L395 518Z" fill="#9dbcd2" stroke="#9dbcd2"></path><path d="M501 536L492 600L579 523Z" fill="#478aaf" stroke="#478aaf"></path><path d="M579 523L618 600L688 472Z" fill="#d8e4ed" stroke="#d8e4ed"></path><path d="M438 600L492 600L501 536Z" fill="#ebf1f6" stroke="#ebf1f6"></path><path d="M93 310L87 399L185 373Z" fill="#ffffff" stroke="#ffffff"></path><path d="M802 282L729 219L707 333Z" fill="#c4d6e4" stroke="#c4d6e4"></path><path d="M729 219L781 208L692 81Z" fill="#d8e4ed" stroke="#d8e4ed"></path><path d="M802 282L707 333L795 393Z" fill="#478aaf" stroke="#478aaf"></path><path d="M175 600L294 600L221 495Z" fill="#ffffff" stroke="#ffffff"></path><path d="M221 495L294 600L330 463Z" fill="#89afc9" stroke="#89afc9"></path><path d="M129 0L95 79L196 137Z" fill="#297ea6" stroke="#297ea6"></path><path d="M0 191L0 316L93 310Z" fill="#b1c9db" stroke="#b1c9db"></path><path d="M93 310L0 316L87 399Z" fill="#297ea6" stroke="#297ea6"></path><path d="M795 393L707 333L718 375Z" fill="#c4d6e4" stroke="#c4d6e4"></path><path d="M239 0L129 0L196 137Z" fill="#89afc9" stroke="#89afc9"></path><path d="M814 0L718 0L692 81Z" fill="#5f96b8" stroke="#5f96b8"></path><path d="M692 81L718 0L600 0Z" fill="#c4d6e4" stroke="#c4d6e4"></path><path d="M492 600L618 600L579 523Z" fill="#ffffff" stroke="#ffffff"></path><path d="M688 472L795 393L718 375Z" fill="#c4d6e4" stroke="#c4d6e4"></path><path d="M833 516L795 393L688 472Z" fill="#478aaf" stroke="#478aaf"></path><path d="M87 399L106 535L221 495Z" fill="#ffffff" stroke="#ffffff"></path><path d="M106 535L175 600L221 495Z" fill="#ffffff" stroke="#ffffff"></path><path d="M0 191L93 310L122 166Z" fill="#d8e4ed" stroke="#d8e4ed"></path><path d="M87 399L0 490L106 535Z" fill="#b1c9db" stroke="#b1c9db"></path><path d="M0 117L122 166L95 79Z" fill="#75a3c0" stroke="#75a3c0"></path><path d="M0 117L0 191L122 166Z" fill="#b1c9db" stroke="#b1c9db"></path><path d="M781 208L837 112L692 81Z" fill="#75a3c0" stroke="#75a3c0"></path><path d="M900 207L837 112L781 208Z" fill="#478aaf" stroke="#478aaf"></path><path d="M900 207L781 208L802 282Z" fill="#5f96b8" stroke="#5f96b8"></path><path d="M0 0L0 117L95 79Z" fill="#297ea6" stroke="#297ea6"></path><path d="M618 600L699 600L688 472Z" fill="#d8e4ed" stroke="#d8e4ed"></path><path d="M0 316L0 433L87 399Z" fill="#75a3c0" stroke="#75a3c0"></path><path d="M0 600L113 600L106 535Z" fill="#ffffff" stroke="#ffffff"></path><path d="M106 535L113 600L175 600Z" fill="#297ea6" stroke="#297ea6"></path><path d="M837 112L814 0L692 81Z" fill="#d8e4ed" stroke="#d8e4ed"></path><path d="M0 433L0 490L87 399Z" fill="#b1c9db" stroke="#b1c9db"></path><path d="M900 434L900 277L795 393Z" fill="#9dbcd2" stroke="#9dbcd2"></path><path d="M795 393L900 277L802 282Z" fill="#297ea6" stroke="#297ea6"></path><path d="M837 112L900 77L814 0Z" fill="#ffffff" stroke="#ffffff"></path><path d="M900 277L900 207L802 282Z" fill="#5f96b8" stroke="#5f96b8"></path><path d="M699 600L833 516L688 472Z" fill="#9dbcd2" stroke="#9dbcd2"></path><path d="M129 0L0 0L95 79Z" fill="#478aaf" stroke="#478aaf"></path><path d="M900 207L900 77L837 112Z" fill="#d8e4ed" stroke="#d8e4ed"></path><path d="M833 516L900 434L795 393Z" fill="#297ea6" stroke="#297ea6"></path><path d="M699 600L832 600L833 516Z" fill="#ebf1f6" stroke="#ebf1f6"></path><path d="M833 516L900 518L900 434Z" fill="#297ea6" stroke="#297ea6"></path><path d="M0 490L0 600L106 535Z" fill="#297ea6" stroke="#297ea6"></path><path d="M900 77L900 0L814 0Z" fill="#c4d6e4" stroke="#c4d6e4"></path><path d="M832 600L900 518L833 516Z" fill="#b1c9db" stroke="#b1c9db"></path><path d="M832 600L900 600L900 518Z" fill="#d8e4ed" stroke="#d8e4ed"></path></g></svg>