<svg id="visual" viewBox="0 0 1920 1080" width="1920" height="1080" xmlns="http://www.w3.org/2000/svg" xmlns:xlink="http://www.w3.org/1999/xlink" version="1.1"><g stroke-width="1" stroke-linejoin="bevel"><path d="M824.9 504L839.9 283L561.6 278Z" fill="#19435d" stroke="#19435d"></path><path d="M561.6 278L510.6 513L824.9 504Z" fill="#19435d" stroke="#19435d"></path><path d="M1113.1 515L1063.1 234L839.9 283Z" fill="#1d4e6b" stroke="#1d4e6b"></path><path d="M839.9 283L581.6 0L561.6 278Z" fill="#246688" stroke="#246688"></path><path d="M847.9 0L581.6 0L839.9 283Z" fill="#081a28" stroke="#081a28"></path><path d="M303.3 249L308.3 524L510.6 513Z" fill="#297ea6" stroke="#297ea6"></path><path d="M1063.1 234L847.9 0L839.9 283Z" fill="#112e42" stroke="#112e42"></path><path d="M303.3 249L510.6 513L561.6 278Z" fill="#112e42" stroke="#112e42"></path><path d="M1066.1 773L1113.1 515L824.9 504Z" fill="#00101c" stroke="#00101c"></path><path d="M581.6 0L303.3 249L561.6 278Z" fill="#19435d" stroke="#19435d"></path><path d="M783.9 839L824.9 504L510.6 513Z" fill="#15384f" stroke="#15384f"></path><path d="M824.9 504L1113.1 515L839.9 283Z" fill="#112e42" stroke="#112e42"></path><path d="M538.6 847L783.9 839L510.6 513Z" fill="#112e42" stroke="#112e42"></path><path d="M303.3 841L538.6 847L510.6 513Z" fill="#277297" stroke="#277297"></path><path d="M1337.4 247L1068.1 0L1063.1 234Z" fill="#297ea6" stroke="#297ea6"></path><path d="M1063.1 234L1068.1 0L847.9 0Z" fill="#277297" stroke="#277297"></path><path d="M783.9 839L1066.1 773L824.9 504Z" fill="#0c2435" stroke="#0c2435"></path><path d="M581.6 0L293.3 0L303.3 249Z" fill="#277297" stroke="#277297"></path><path d="M0 783L303.3 841L308.3 524Z" fill="#277297" stroke="#277297"></path><path d="M0 297L308.3 524L303.3 249Z" fill="#00101c" stroke="#00101c"></path><path d="M308.3 524L303.3 841L510.6 513Z" fill="#00101c" stroke="#00101c"></path><path d="M1342.4 507L1337.4 247L1113.1 515Z" fill="#19435d" stroke="#19435d"></path><path d="M1113.1 515L1337.4 247L1063.1 234Z" fill="#112e42" stroke="#112e42"></path><path d="M1361.4 795L1342.4 507L1113.1 515Z" fill="#112e42" stroke="#112e42"></path><path d="M0 0L0 297L303.3 249Z" fill="#112e42" stroke="#112e42"></path><path d="M783.9 839L819.9 1080L1066.1 773Z" fill="#277297" stroke="#277297"></path><path d="M1066.1 773L1361.4 795L1113.1 515Z" fill="#297ea6" stroke="#297ea6"></path><path d="M538.6 1080L819.9 1080L783.9 839Z" fill="#246688" stroke="#246688"></path><path d="M538.6 1080L783.9 839L538.6 847Z" fill="#19435d" stroke="#19435d"></path><path d="M297.3 1080L538.6 1080L538.6 847Z" fill="#277297" stroke="#277297"></path><path d="M0 297L0 565L308.3 524Z" fill="#00101c" stroke="#00101c"></path><path d="M303.3 841L297.3 1080L538.6 847Z" fill="#112e42" stroke="#112e42"></path><path d="M1337.4 247L1345.4 0L1068.1 0Z" fill="#081a28" stroke="#081a28"></path><path d="M1618.7 0L1345.4 0L1337.4 247Z" fill="#246688" stroke="#246688"></path><path d="M1092.1 1080L1361.4 795L1066.1 773Z" fill="#081a28" stroke="#081a28"></path><path d="M1342.4 507L1646.7 294L1337.4 247Z" fill="#0c2435" stroke="#0c2435"></path><path d="M293.3 0L0 0L303.3 249Z" fill="#297ea6" stroke="#297ea6"></path><path d="M819.9 1080L1092.1 1080L1066.1 773Z" fill="#277297" stroke="#277297"></path><path d="M0 1080L297.3 1080L303.3 841Z" fill="#112e42" stroke="#112e42"></path><path d="M0 565L0 783L308.3 524Z" fill="#081a28" stroke="#081a28"></path><path d="M1639.7 794L1618.7 525L1361.4 795Z" fill="#277297" stroke="#277297"></path><path d="M1361.4 795L1618.7 525L1342.4 507Z" fill="#00101c" stroke="#00101c"></path><path d="M1618.7 525L1646.7 294L1342.4 507Z" fill="#081a28" stroke="#081a28"></path><path d="M1092.1 1080L1385.4 1080L1361.4 795Z" fill="#081a28" stroke="#081a28"></path><path d="M0 783L0 1080L303.3 841Z" fill="#00101c" stroke="#00101c"></path><path d="M1646.7 294L1618.7 0L1337.4 247Z" fill="#15384f" stroke="#15384f"></path><path d="M1613.7 1080L1639.7 794L1361.4 795Z" fill="#081a28" stroke="#081a28"></path><path d="M1920 510L1920 260L1646.7 294Z" fill="#297ea6" stroke="#297ea6"></path><path d="M1385.4 1080L1613.7 1080L1361.4 795Z" fill="#205a7a" stroke="#205a7a"></path><path d="M1920 510L1646.7 294L1618.7 525Z" fill="#19435d" stroke="#19435d"></path><path d="M1646.7 294L1920 260L1618.7 0Z" fill="#297ea6" stroke="#297ea6"></path><path d="M1920 510L1618.7 525L1639.7 794Z" fill="#15384f" stroke="#15384f"></path><path d="M1920 835L1920 510L1639.7 794Z" fill="#19435d" stroke="#19435d"></path><path d="M1920 260L1920 0L1618.7 0Z" fill="#081a28" stroke="#081a28"></path><path d="M1613.7 1080L1920 835L1639.7 794Z" fill="#15384f" stroke="#15384f"></path><path d="M1613.7 1080L1920 1080L1920 835Z" fill="#277297" stroke="#277297"></path></g></svg>